# xmcd CD database file
#
# Track frame offsets:
#	150
#	16447
#	37012
#	51432
#	63812
#	78980
#	102682
#	121300
#	134480
#	152440
#	170492
#	183087
#	205740
#
# Disc length: 2907 seconds
#
# Revision: 0
# Processed by: cddbd v1.5.2PL0 Copyright (c) Steve Scherf et al.
# Submitted via: CDex 1.70beta2
#
DISCID=ad0b590d
DTITLE=Christine Jones feat. Karl Ratzer - Wow!!!
DYEAR=1991
DGENRE=Jazz
TTITLE0=LSD Cooking
TTITLE1=Dream
TTITLE2=Well
TTITLE3=Nelly Bly
TTITLE4=Pink
TTITLE5=Lovers
TTITLE6=Tree Top Tall Papa
TTITLE7=Bull Woman
TTITLE8=Lean On Me
TTITLE9=Leaving
TTITLE10=I Love You
TTITLE11=Summertime
TTITLE12=Forget Me Not
EXTD=YEAR: 1991
EXTT0=
EXTT1=
EXTT2=
EXTT3=
EXTT4=
EXTT5=
EXTT6=
EXTT7=
EXTT8=
EXTT9=
EXTT10=
EXTT11=
EXTT12=
PLAYORDER=
